# xmcd CD database file
#
# Track frame offsets:
#	150
#	17330
#	25970
#	36800
#
# Disc length: 741 seconds
#
# Revision: 1
# Processed by: cddbd v1.5.2PL0 Copyright (c) Steve Scherf et al.
# Submitted via: CDex 1.70beta2
#
DISCID=2202e304
DTITLE=The Androids - Do It With Madonna
DYEAR=2002
DGENRE=Blues
TTITLE0=Do It With Madonna
TTITLE1=Gone
TTITLE2=Overdose
TTITLE3=Inside Out
EXTD=YEAR: 2002
EXTT0=
EXTT1=
EXTT2=
EXTT3=
PLAYORDER=
